<svg id="Layer_5" enable-background="new 0 0 64 64" height="512" viewBox="0 0 64 64" width="512" xmlns="http://www.w3.org/2000/svg" xmlns:xlink="http://www.w3.org/1999/xlink"><linearGradient id="SVGID_1_" gradientUnits="userSpaceOnUse" x1="32" x2="32" y1="63" y2="1"><stop offset="0" stop-color="#9f2fff"/><stop offset="1" stop-color="#0bb1d3"/></linearGradient><path d="m52.866 31.076c-.395-3.303-1.795-6.274-3.866-8.632v-21.444h-34v23.517c-2.868 1.019-5.096 3.456-5.777 6.516-4.6.395-8.223 4.266-8.223 8.967 0 4.962 4.038 9 9 9h5v14h34v-14h5c4.962 0 9-4.038 9-9 0-5.336-4.692-9.642-10.134-8.924zm-35.866-28.076h30v17.529c-.63-.507-1.297-.967-2-1.375v-6.154h-26v11.073c-.332-.038-.664-.073-1-.073-.338 0-.671.025-1 .062zm26 15.172c-1.855-.751-3.878-1.172-6-1.172-5.928 0-11.335 3.281-14.104 8.456-.593-.386-1.235-.679-1.896-.915v-9.541h22zm4 42.828h-30v-28h30zm7-14h-5v-16h-34v16h-5c-3.86 0-7-3.14-7-7s3.14-7 6.959-7.001l.993.004.109-.876c.435-3.493 3.418-6.127 6.939-6.127 1.689 0 3.325.617 4.605 1.738l1.026.898.548-1.249c2.235-5.095 7.267-8.387 12.821-8.387 7.471 0 13.605 5.851 13.964 13.319l.06 1.232 1.193-.313c4.628-1.209 8.783 2.323 8.783 6.762 0 3.86-3.14 7-7 7zm-9-12h-26v20h26zm-17 14c-1.654 0-3-1.346-3-3 0-1.747 1.455-4 3-4s3 2.253 3 4c0 1.654-1.346 3-3 3zm1 1.899c1.453-.296 2.66-1.237 3.358-2.497.696.745 1.607 1.286 2.642 1.497v3.101h-6zm7-2.899c-1.654 0-3-1.346-3-3 0-1.747 1.455-4 3-4s3 2.253 3 4c0 1.654-1.346 3-3 3zm7 5h-6v-3.101c2.279-.465 4-2.484 4-4.899 0-2.774-2.184-6-5-6-1.859 0-3.438 1.408-4.299 3.162-.907-1.258-2.214-2.162-3.701-2.162-2.816 0-5 3.226-5 6 0 2.414 1.721 4.434 4 4.899v2.101h-6v-16h22zm-22 6h-2v-2h2zm2-2h18v2h-18zm20 0h2v2h-2zm-22-50h-2v-2h2zm24 0h-22v-2h22zm0 4h-26v-2h26zm3.182 17.636-1.863.728c-1.51-3.866-5.168-6.364-9.319-6.364v-2c4.981 0 9.37 2.998 11.182 7.636z" fill="url(#SVGID_1_)"/></svg>