<?xml version="1.0" standalone="no"?>
<!DOCTYPE svg PUBLIC "-//W3C//DTD SVG 20010904//EN"
 "http://www.w3.org/TR/2001/REC-SVG-20010904/DTD/svg10.dtd">
<svg version="1.0" xmlns="http://www.w3.org/2000/svg"
 width="512.000000pt" height="512.000000pt" viewBox="0 0 512.000000 512.000000"
 preserveAspectRatio="xMidYMid meet">

<g transform="translate(0.000000,512.000000) scale(0.100000,-0.100000)"
fill="#000000" stroke="none">
<path d="M2506 4510 c-69 -74 -94 -135 -102 -253 l-7 -97 163 0 163 0 -7 97
c-8 118 -33 179 -102 253 -26 27 -50 50 -54 50 -4 0 -28 -23 -54 -50z"/>
<path d="M4570 4138 c-33 -17 -51 -35 -67 -68 l-23 -44 0 -648 0 -648 160 0
160 0 0 648 0 648 -22 44 c-25 48 -89 90 -138 90 -14 0 -46 -10 -70 -22z"/>
<path d="M1122 3916 c6 -111 42 -186 131 -274 l64 -64 112 113 112 113 -53 54
c-102 104 -184 142 -306 142 l-65 0 5 -84z"/>
<path d="M3816 3983 c-62 -18 -115 -55 -184 -125 l-53 -55 112 -112 112 -112
64 63 c88 87 123 160 130 272 l6 86 -69 -1 c-38 0 -91 -7 -118 -16z"/>
<path d="M1790 3551 c-76 -25 -163 -100 -203 -175 -18 -34 -22 -57 -22 -136 0
-84 3 -101 27 -146 102 -195 352 -237 510 -86 127 121 136 314 21 442 -66 74
-129 103 -228 106 -44 2 -91 0 -105 -5z m196 -146 c63 -37 89 -85 89 -167 0
-58 -4 -72 -30 -109 -44 -62 -105 -92 -177 -86 -71 6 -120 35 -152 90 -50 86
-42 170 22 239 68 71 161 84 248 33z"/>
<path d="M1825 3342 c-41 -26 -55 -44 -62 -85 -15 -95 89 -167 177 -122 82 42
78 170 -6 210 -42 20 -72 19 -109 -3z"/>
<path d="M3150 3551 c-97 -32 -187 -116 -216 -203 -41 -124 -10 -251 84 -340
91 -87 211 -113 331 -73 64 21 144 92 179 159 24 45 27 62 27 146 0 111 -15
149 -91 224 -68 69 -114 89 -209 92 -44 2 -91 0 -105 -5z m145 -122 c55 -15
120 -82 135 -138 14 -54 6 -103 -26 -158 -36 -62 -84 -88 -166 -88 -58 0 -72
4 -109 30 -63 44 -92 105 -86 178 8 92 56 150 147 178 36 11 60 10 105 -2z"/>
<path d="M3184 3345 c-82 -42 -85 -168 -4 -210 122 -63 239 91 142 188 -36 35
-93 45 -138 22z"/>
<path d="M2460 2864 c-227 -82 -293 -362 -125 -529 65 -66 125 -89 225 -90 73
0 92 4 136 27 76 40 107 70 145 140 31 58 34 70 33 148 0 100 -24 161 -89 225
-82 82 -222 116 -325 79z"/>
<path d="M788 2710 c-62 -11 -136 -52 -189 -106 l-43 -44 44 -46 c71 -71 146
-103 263 -111 l97 -6 0 161 0 162 -62 -1 c-35 -1 -84 -5 -110 -9z"/>
<path d="M4160 2559 l0 -162 81 6 c44 3 81 7 82 9 1 1 1 69 -1 149 -3 168 3
159 -104 159 l-58 0 0 -161z"/>
<path d="M1830 2200 c-101 -17 -189 -82 -238 -175 -24 -44 -27 -62 -27 -145 0
-111 15 -149 91 -224 75 -76 113 -91 224 -91 83 0 101 3 145 27 59 31 130 104
152 155 35 86 33 205 -6 282 -30 57 -119 136 -176 154 -69 21 -112 26 -165 17z
m146 -147 c22 -11 53 -39 69 -62 26 -37 30 -51 30 -109 0 -82 -26 -130 -88
-166 -89 -52 -174 -42 -243 28 -68 67 -79 148 -33 237 45 90 167 123 265 72z"/>
<path d="M1818 1982 c-64 -39 -74 -131 -20 -184 97 -97 250 20 187 142 -29 56
-112 77 -167 42z"/>
<path d="M3170 2196 c-75 -16 -107 -35 -166 -98 -83 -87 -108 -209 -69 -327
21 -64 92 -144 159 -179 45 -24 62 -27 146 -27 111 0 149 15 224 91 76 75 91
113 91 224 0 84 -3 101 -27 146 -69 131 -216 201 -358 170z m161 -143 c121
-62 143 -212 45 -309 -69 -70 -154 -80 -243 -28 -83 48 -116 160 -73 248 51
107 163 143 271 89z"/>
<path d="M3178 1984 c-54 -29 -74 -109 -41 -165 18 -31 67 -59 103 -59 34 0
79 28 100 63 63 103 -55 220 -162 161z"/>
<path d="M1246 1471 c-88 -91 -118 -158 -124 -270 l-5 -84 86 5 c112 6 187 41
275 131 l63 63 -111 112 c-61 62 -112 112 -114 112 -1 0 -33 -31 -70 -69z"/>
<path d="M3687 1427 l-109 -110 64 -64 c88 -90 163 -125 275 -131 l86 -5 -5
86 c-7 113 -37 177 -124 268 -37 38 -70 68 -73 68 -3 -1 -55 -51 -114 -112z"/>
<path d="M2404 863 c8 -118 40 -193 110 -263 l46 -44 46 44 c70 70 102 145
110 263 l7 97 -163 0 -163 0 7 -97z"/>
</g>
</svg>
