<?xml version="1.0" standalone="no"?>
<!DOCTYPE svg PUBLIC "-//W3C//DTD SVG 20010904//EN"
 "http://www.w3.org/TR/2001/REC-SVG-20010904/DTD/svg10.dtd">
<svg version="1.0" xmlns="http://www.w3.org/2000/svg"
 width="512.000000pt" height="512.000000pt" viewBox="0 0 512.000000 512.000000"
 preserveAspectRatio="xMidYMid meet">

<g transform="translate(0.000000,512.000000) scale(0.100000,-0.100000)"
fill="#000000" stroke="none">
<path d="M2405 5114 c-238 -34 -367 -68 -523 -138 -519 -231 -892 -708 -993
-1272 -29 -160 -31 -428 -5 -559 36 -181 116 -343 219 -444 42 -40 52 -45 153
-66 60 -13 110 -23 111 -21 1 1 -2 18 -8 37 -16 54 -32 535 -24 721 l7 167 32
-17 c23 -12 55 -17 121 -17 82 0 96 3 158 33 110 54 280 230 409 422 16 24 16
22 1 -28 -12 -42 -12 -59 -3 -88 49 -148 294 -62 566 198 113 109 234 250 306
360 28 43 55 78 59 78 21 0 195 -68 269 -105 285 -144 473 -369 510 -611 27
-170 22 -1001 -6 -1125 l-6 -26 100 21 c113 25 136 40 212 135 88 110 146 253
170 420 19 124 7 428 -20 556 -151 709 -696 1236 -1395 1350 -90 15 -364 27
-420 19z m332 -590 c-3 -3 -12 -4 -19 -1 -8 3 -5 6 6 6 11 1 17 -2 13 -5z"/>
<path d="M1964 3350 c-75 -31 -103 -183 -49 -267 26 -40 46 -52 80 -52 62 0
105 64 105 157 0 117 -63 193 -136 162z"/>
<path d="M3077 3330 c-123 -107 -20 -379 106 -280 81 64 69 258 -18 298 -38
18 -51 15 -88 -18z"/>
<path d="M2266 2797 c-36 -36 -33 -72 10 -134 69 -100 200 -162 317 -149 115
12 233 89 278 182 18 38 19 49 9 73 -15 38 -61 58 -95 43 -13 -6 -36 -29 -50
-52 -52 -82 -153 -119 -239 -86 -41 16 -90 60 -126 114 -8 12 -29 25 -47 28
-26 5 -37 1 -57 -19z"/>
<path d="M3725 1890 c-220 -49 -415 -91 -434 -95 -41 -8 -81 -46 -81 -78 0
-39 36 -77 74 -77 17 0 227 42 466 94 368 80 437 98 452 116 38 47 11 116 -47
124 -16 2 -210 -35 -430 -84z"/>
<path d="M3685 1594 c-389 -85 -432 -96 -452 -120 -30 -33 -29 -69 3 -101 22
-22 32 -25 67 -20 56 8 823 175 865 188 37 12 52 35 52 78 0 36 -40 71 -79 70
-14 0 -219 -43 -456 -95z"/>
</g>
</svg>
