<svg id="Capa_1" enable-background="new 0 0 512 512" height="512" viewBox="0 0 512 512" width="512" xmlns="http://www.w3.org/2000/svg" xmlns:xlink="http://www.w3.org/1999/xlink"><linearGradient id="SVGID_1_" gradientUnits="userSpaceOnUse" x1="256" x2="256" y1="512" y2="0"><stop offset="0" stop-color="#fd5900"/><stop offset="1" stop-color="#ffde00"/></linearGradient><g><g><path d="m118.114 139.325c5.859 5.859 15.351 5.859 21.211 0 5.859-5.859 5.859-15.352 0-21.211l-42.422-42.422c-5.859-5.859-15.352-5.859-21.211 0s-5.859 15.352 0 21.211zm137.886-48.325c8.291 0 15-6.709 15-15v-61c0-8.291-6.709-15-15-15s-15 6.709-15 15v61c0 8.291 6.709 15 15 15zm-165 165c0-8.291-6.709-15-15-15h-61c-8.291 0-15 6.709-15 15s6.709 15 15 15h61c8.291 0 15-6.709 15-15zm302.886-116.675 42.422-42.422c5.859-5.859 5.859-15.352 0-21.211s-15.352-5.859-21.211 0l-42.422 42.422c-5.859 5.859-5.859 15.352 0 21.211s15.351 5.86 21.211 0zm-137.886-18.325c-74.443 0-135 60.557-135 135s60.557 135 135 135 135-60.557 135-135-60.557-135-135-135zm0 240c-57.891 0-105-47.109-105-105s47.109-105 105-105 105 47.109 105 105-47.109 105-105 105zm-137.886 11.675-42.422 42.422c-5.859 5.859-5.859 15.352 0 21.211s15.351 5.859 21.211 0l42.422-42.422c5.859-5.859 5.859-15.352 0-21.211s-15.351-5.86-21.211 0zm275.772 0c-5.859-5.859-15.352-5.859-21.211 0s-5.859 15.352 0 21.211l42.422 42.422c5.859 5.859 15.351 5.859 21.211 0 5.859-5.859 5.859-15.352 0-21.211zm103.114-131.675h-61c-8.291 0-15 6.709-15 15s6.709 15 15 15h61c8.291 0 15-6.709 15-15s-6.709-15-15-15zm-241 180c-8.291 0-15 6.709-15 15v61c0 8.291 6.709 15 15 15s15-6.709 15-15v-61c0-8.291-6.709-15-15-15z" fill="url(#SVGID_1_)"/></g></g></svg>