<?xml version="1.0" standalone="no"?>
<!DOCTYPE svg PUBLIC "-//W3C//DTD SVG 20010904//EN"
 "http://www.w3.org/TR/2001/REC-SVG-20010904/DTD/svg10.dtd">
<svg version="1.0" xmlns="http://www.w3.org/2000/svg"
 width="512.000000pt" height="512.000000pt" viewBox="0 0 512.000000 512.000000"
 preserveAspectRatio="xMidYMid meet">
<metadata>
Created by potrace 1.16, written by Peter Selinger 2001-2019
</metadata>
<g transform="translate(0.000000,512.000000) scale(0.100000,-0.100000)"
fill="#000000" stroke="none">
<path d="M3881 4820 c-320 -45 -581 -262 -683 -570 -30 -88 -32 -105 -32 -235
0 -127 2 -148 28 -225 16 -47 48 -130 72 -185 24 -54 41 -102 36 -106 -4 -4
-172 -86 -374 -182 l-368 -176 -551 265 c-304 145 -557 264 -563 264 -6 0
-266 -122 -578 -272 l-568 -272 0 -658 c0 -620 1 -658 18 -658 43 1 42 -13 44
645 l3 628 519 249 c285 136 520 248 522 248 2 0 4 -299 4 -665 0 -366 -2
-665 -5 -665 -2 0 -39 21 -82 47 -47 29 -89 47 -108 47 -16 0 -74 -17 -128
-38 -78 -30 -100 -43 -112 -66 -18 -35 -18 -58 -2 -86 7 -12 108 -105 225
-208 l213 -188 -3 -119 -3 -120 -164 -70 c-91 -38 -172 -67 -180 -64 -8 3
-109 60 -224 127 -225 131 -224 130 -310 94 -42 -18 -63 -52 -53 -89 3 -14 64
-75 151 -152 80 -70 145 -129 145 -131 0 -2 -9 -18 -20 -36 -24 -39 -27 -126
-6 -166 32 -61 96 -102 160 -102 25 0 405 114 493 147 11 4 13 -13 11 -97 l-3
-103 -519 -249 c-285 -136 -520 -248 -522 -248 -2 0 -4 263 -4 585 0 576 0
584 -20 595 -11 6 -25 8 -30 5 -6 -4 -10 -235 -10 -635 0 -576 1 -628 17 -634
10 -4 218 90 572 259 l555 266 48 -22 c28 -13 48 -29 48 -38 0 -9 -19 -96 -41
-193 -43 -184 -44 -213 -9 -248 36 -36 65 -35 173 5 56 20 110 45 120 54 9 9
37 64 62 121 25 58 49 104 54 103 6 -2 156 -73 335 -159 l326 -156 533 255
c292 140 544 260 558 267 23 11 72 -11 580 -254 305 -146 558 -266 561 -266 4
0 14 7 22 16 14 14 16 154 16 1397 0 760 -3 1392 -6 1403 -4 16 -43 39 -145
88 -76 37 -139 69 -139 72 0 3 20 39 44 82 170 300 237 487 237 662 -1 436
-345 790 -792 814 -46 3 -113 1 -148 -4z m40 -96 c114 -34 208 -92 310 -194
82 -82 101 -108 141 -190 64 -134 82 -204 82 -330 0 -95 -4 -115 -37 -213 -82
-241 -260 -559 -519 -929 l-54 -77 -55 77 c-30 43 -79 114 -109 159 -40 60
-61 82 -76 83 -38 0 -37 -30 1 -86 l35 -54 0 -641 c0 -553 -2 -640 -14 -636
-8 3 -34 11 -58 17 -24 6 -76 27 -115 47 -75 36 -103 38 -103 5 0 -35 211
-130 266 -119 l24 4 -2 -385 -3 -385 -519 -249 c-285 -136 -520 -248 -522
-248 -2 0 -4 240 -4 534 l0 533 66 33 c99 49 152 131 153 240 1 104 -70 206
-173 245 l-46 18 2 550 3 551 370 177 c204 98 375 178 380 178 6 1 27 -31 48
-69 27 -50 44 -70 58 -70 11 0 22 7 25 15 4 8 -36 101 -89 208 -123 247 -148
320 -154 458 -5 86 -2 120 16 190 64 254 238 450 480 540 89 33 118 35 192 13z
m-1911 -1393 l515 -247 3 -552 2 -552 -22 0 c-11 0 -102 -34 -200 -76 l-179
-76 -117 68 c-64 37 -134 77 -154 88 -27 15 -36 25 -31 36 28 64 6 148 -47
175 -41 21 -78 19 -155 -10 l-67 -25 -39 22 -39 22 0 688 c0 378 3 688 8 687
4 0 239 -111 522 -248z m2624 -186 l125 -60 1 -1352 c0 -744 -2 -1353 -5
-1353 -3 0 -137 64 -297 141 -161 78 -392 189 -513 246 -121 58 -223 108 -228
112 -4 4 -6 451 -5 994 l3 987 95 -132 c52 -72 107 -144 122 -160 37 -40 81
-38 122 5 44 47 289 393 371 525 39 62 73 111 76 109 4 -1 63 -29 133 -62z
m-1996 -1246 c24 -12 40 -25 35 -29 -4 -4 -47 -19 -95 -34 -97 -29 -118 -49
-118 -106 0 -39 26 -72 66 -84 12 -4 63 7 119 24 54 17 100 28 103 25 3 -2 -3
-25 -12 -50 -31 -79 -71 -103 -293 -174 -109 -35 -204 -66 -211 -69 -10 -3
-10 4 3 34 13 33 14 40 1 52 -12 13 -49 3 -283 -70 l-268 -85 -14 -54 c-8 -30
-15 -55 -16 -56 -4 -7 -736 -233 -754 -233 -61 0 -111 57 -111 125 0 76 -5 73
597 331 307 130 682 291 833 355 305 131 334 138 418 98z m-108 -995 c0 -299
-4 -524 -9 -522 -5 2 -144 68 -309 147 l-300 144 13 31 c11 26 25 36 87 58
103 38 138 85 124 163 -4 22 -19 44 -42 63 l-35 29 64 154 65 154 159 52 c87
28 164 52 171 52 9 1 12 -110 12 -525z m-895 234 c-2 -7 -18 -76 -36 -153 -17
-77 -33 -141 -34 -143 -2 -2 -22 6 -44 18 l-42 21 3 111 3 111 65 23 c76 26
91 28 85 12z"/>
<path d="M3889 4367 c-62 -18 -126 -57 -176 -109 -180 -187 -124 -498 112
-614 55 -26 69 -29 165 -29 92 0 112 3 160 26 123 58 213 184 226 314 16 158
-76 318 -224 387 -74 35 -188 46 -263 25z m237 -81 c246 -113 249 -464 6 -583
-49 -24 -69 -28 -142 -28 -103 0 -160 24 -232 97 -82 84 -109 210 -71 328 19
58 82 136 140 172 87 53 202 58 299 14z"/>
<path d="M2677 2533 c-18 -18 -3 -43 41 -69 26 -15 73 -54 105 -86 58 -60 88
-71 95 -34 7 35 -174 196 -220 196 -8 0 -18 -3 -21 -7z"/>
<path d="M3016 2153 c-7 -19 82 -158 141 -220 27 -30 35 -34 48 -23 22 18 19
33 -16 76 -17 22 -53 72 -80 112 -50 73 -80 90 -93 55z"/>
<path d="M2358 2546 c-83 -34 -160 -93 -156 -120 4 -31 34 -31 70 -1 39 33
111 70 166 85 36 9 43 15 40 33 -4 31 -50 33 -120 3z"/>
<path d="M4305 2168 c-2 -7 -6 -36 -9 -64 -4 -28 -18 -79 -32 -114 -19 -48
-22 -65 -13 -76 6 -8 18 -14 25 -14 30 0 84 150 84 232 0 45 -2 48 -25 48 -14
0 -27 -6 -30 -12z"/>
<path d="M4039 1750 c-31 -16 -85 -37 -120 -46 -79 -20 -101 -37 -77 -61 16
-15 22 -15 85 0 134 33 235 101 191 128 -17 11 -15 12 -79 -21z"/>
<path d="M494 4802 c-6 -4 -14 -23 -18 -43 -9 -51 -61 -106 -121 -128 -44 -17
-50 -23 -50 -47 0 -24 5 -29 36 -37 48 -11 95 -61 124 -133 19 -47 29 -59 46
-59 24 0 34 14 44 60 8 37 68 95 127 123 69 32 73 73 8 86 -41 8 -95 61 -128
126 -26 53 -45 68 -68 52z m36 -132 c0 -5 18 -28 40 -50 l41 -41 -48 -44 c-26
-24 -50 -44 -53 -45 -3 0 -13 12 -22 28 -9 15 -26 36 -37 46 l-21 19 43 48
c42 47 57 57 57 39z"/>
<path d="M914 4583 c-24 -108 -61 -160 -145 -202 -34 -17 -70 -31 -79 -31 -24
0 -43 -25 -35 -48 4 -13 19 -22 42 -27 103 -19 171 -101 219 -263 2 -8 15 -12
30 -10 23 3 29 10 39 50 23 92 75 145 215 219 29 16 45 31 45 43 0 21 -9 27
-79 51 -64 23 -118 80 -161 171 -30 63 -39 74 -60 74 -19 0 -26 -7 -31 -27z
m120 -211 c17 -19 44 -40 60 -49 l28 -15 -50 -33 c-50 -34 -122 -110 -122
-129 0 -6 -17 16 -38 49 -21 33 -55 74 -76 90 l-37 30 48 35 c27 19 62 56 78
81 l30 45 24 -35 c13 -20 38 -51 55 -69z"/>
<path d="M498 4269 c-9 -5 -19 -25 -22 -44 -10 -52 -67 -110 -127 -130 -43
-15 -49 -20 -49 -45 0 -24 5 -29 35 -34 64 -12 100 -56 146 -173 13 -35 57
-31 64 5 13 59 40 96 100 133 101 64 99 62 86 87 -7 13 -21 22 -34 22 -42 0
-94 46 -127 114 -34 68 -46 79 -72 65z m67 -175 l44 -47 -49 -46 -50 -47 -27
38 c-14 22 -33 43 -42 47 -12 7 -7 17 30 54 24 25 45 45 47 46 1 1 22 -20 47
-45z"/>
</g>
</svg>
