<?xml version="1.0" standalone="no"?>
<!DOCTYPE svg PUBLIC "-//W3C//DTD SVG 20010904//EN"
 "http://www.w3.org/TR/2001/REC-SVG-20010904/DTD/svg10.dtd">
<svg version="1.0" xmlns="http://www.w3.org/2000/svg"
 width="512.000000pt" height="512.000000pt" viewBox="0 0 512.000000 512.000000"
 preserveAspectRatio="xMidYMid meet">
<metadata>
Created by potrace 1.16, written by Peter Selinger 2001-2019
</metadata>
<g transform="translate(0.000000,512.000000) scale(0.100000,-0.100000)"
fill="#000000" stroke="none">
<path d="M485 4818 c-2 -7 -9 -30 -15 -51 -15 -50 -61 -93 -120 -114 -73 -26
-76 -65 -7 -84 53 -14 98 -62 123 -131 17 -48 22 -53 49 -53 26 0 30 4 37 40
11 50 62 104 128 135 73 34 78 72 10 90 -56 15 -86 43 -121 115 -26 53 -36 65
-56 65 -13 0 -25 -6 -28 -12z m79 -165 l44 -48 -51 -49 c-32 -30 -53 -44 -55
-36 -3 7 -20 30 -39 51 l-34 38 43 44 c24 25 44 46 45 46 1 1 22 -20 47 -46z"/>
<path d="M2401 4649 c-501 -56 -963 -281 -1318 -641 -178 -180 -302 -355 -408
-573 -155 -318 -219 -601 -219 -960 0 -359 65 -646 218 -960 333 -681 988
-1138 1743 -1216 159 -16 444 -7 593 20 465 82 876 301 1205 643 220 228 385
497 488 793 86 249 118 446 118 720 0 357 -66 645 -220 960 -116 237 -230 396
-420 586 -332 331 -730 535 -1201 614 -114 20 -459 28 -579 14z m422 -187
c111 -55 208 -172 232 -279 l7 -33 -114 0 -113 0 -65 66 c-66 67 -105 94 -136
94 -23 0 -106 -63 -152 -116 l-40 -44 -112 0 -112 0 6 33 c19 95 116 221 207
268 80 41 119 49 225 46 90 -2 107 -6 167 -35z m-131 -251 c127 -113 292 -365
363 -556 32 -85 38 -115 24 -115 -30 0 -163 -97 -231 -169 -82 -85 -144 -187
-173 -281 -14 -46 -23 -60 -37 -60 -10 0 -20 6 -22 13 -50 189 -179 361 -346
459 -35 21 -69 39 -74 41 -31 10 83 264 191 426 72 108 225 281 249 281 6 0
31 -18 56 -39z m-314 -143 c-129 -196 -196 -330 -242 -480 -4 -14 -12 -13 -73
9 -109 40 -270 73 -385 80 -60 3 -108 9 -108 12 0 3 89 95 197 203 l198 198
214 0 213 0 -14 -22z m1131 -182 l203 -203 -104 -6 c-138 -7 -322 -49 -453
-102 -5 -3 -20 28 -33 67 -33 104 -102 242 -176 352 l-64 96 212 0 211 0 204
-204z m366 139 c181 -48 310 -201 322 -384 6 -90 -5 -151 -44 -229 l-27 -53
-298 298 c-164 164 -298 301 -298 305 0 12 75 47 133 63 69 18 140 18 212 0z
m-2232 -15 c36 -11 75 -28 86 -38 21 -17 20 -19 -204 -242 -124 -124 -225
-230 -225 -236 0 -6 7 -17 15 -24 14 -11 23 -6 64 34 l48 47 6 -103 c9 -139
54 -337 101 -449 5 -12 -14 -23 -96 -53 -114 -42 -225 -99 -338 -175 l-75 -50
-3 211 -2 212 39 40 c29 29 39 47 35 61 -4 15 5 29 34 53 l40 31 -41 80 c-36
71 -41 90 -45 165 -16 308 266 527 561 436z m200 -419 c295 -62 474 -162 609
-341 34 -44 84 -145 92 -187 7 -31 7 -31 -50 -48 -100 -29 -175 -74 -250 -149
-77 -77 -137 -183 -150 -264 -7 -42 -8 -43 -37 -36 -129 28 -305 166 -389 305
-79 131 -137 311 -163 507 -18 135 -19 196 -4 224 11 20 17 21 128 15 64 -3
160 -15 214 -26z m1932 19 c12 -20 5 -193 -11 -290 -25 -145 -59 -253 -120
-379 -50 -101 -66 -125 -143 -201 -69 -70 -103 -95 -171 -128 -47 -23 -97 -44
-111 -48 -25 -5 -27 -3 -34 36 -4 23 -25 79 -48 123 -76 154 -217 263 -389
301 -33 7 -30 20 25 136 54 115 183 246 303 308 132 68 316 123 489 145 67 9
204 7 210 -3z m475 -676 l0 -212 -82 55 c-100 67 -246 141 -350 178 -43 15
-78 29 -78 31 0 1 13 42 29 91 37 109 67 260 77 377 l7 88 198 -198 199 -199
0 -211z m-1508 25 c88 -18 174 -65 242 -132 198 -195 200 -505 3 -702 -98 -98
-212 -145 -352 -145 -184 0 -364 114 -444 283 -175 367 152 779 551 696z
m-1142 -97 c58 -109 161 -214 283 -288 57 -35 152 -74 182 -74 9 0 15 -9 15
-22 0 -19 -11 -26 -68 -45 -38 -12 -97 -38 -133 -59 -86 -50 -234 -200 -277
-281 -23 -44 -39 -63 -52 -63 -56 0 -271 102 -412 196 -94 62 -249 198 -269
236 -25 46 232 258 443 364 81 41 214 93 240 94 11 0 28 -22 48 -58z m2231 25
c47 -18 129 -57 181 -86 172 -95 398 -281 398 -326 0 -25 -96 -120 -195 -194
-147 -110 -262 -173 -410 -226 l-89 -33 -42 73 c-50 85 -125 169 -205 231 -64
49 -185 110 -236 120 -26 5 -33 11 -33 29 0 18 7 24 33 29 51 10 172 71 236
120 79 61 153 144 202 227 25 41 48 69 58 69 9 -1 55 -15 102 -33z m603 -24
c158 -79 243 -230 234 -411 -4 -73 -10 -98 -38 -157 -55 -115 -176 -214 -283
-232 l-37 -6 0 111 0 111 40 32 c56 45 123 134 123 164 0 30 -31 71 -107 145
l-56 54 0 114 0 114 37 -7 c20 -4 60 -18 87 -32z m-3474 -82 l0 -108 -68 -69
c-37 -38 -74 -84 -81 -101 -12 -30 -11 -36 12 -75 14 -24 50 -67 81 -96 l56
-53 0 -116 0 -115 -27 7 c-108 26 -228 125 -276 226 -14 30 -31 85 -38 122
-35 192 81 394 270 468 73 29 71 31 71 -90z m1134 -436 c17 -109 131 -270 243
-342 29 -18 89 -45 133 -60 46 -15 80 -32 80 -39 0 -28 -43 -122 -86 -186 -64
-95 -167 -187 -272 -241 -166 -85 -419 -147 -603 -147 l-88 0 -7 37 c-11 56
14 262 46 388 53 211 117 334 234 451 45 44 103 93 129 109 52 30 155 74 173
75 7 0 15 -20 18 -45z m1205 9 c152 -68 267 -185 353 -361 33 -68 63 -125 67
-128 5 -2 17 2 27 9 17 13 17 18 6 48 -6 19 -12 37 -12 40 0 4 30 16 68 28 91
30 262 116 355 178 42 29 79 52 82 52 3 0 5 -93 5 -208 l0 -207 -198 -198
-199 -199 -6 68 c-7 70 -24 101 -51 91 -12 -5 -16 -28 -18 -119 l-3 -113 -120
1 c-220 2 -461 69 -632 176 -121 76 -259 251 -291 369 l-10 36 62 17 c192 54
355 220 398 406 11 46 13 49 37 44 14 -4 50 -17 80 -30z m-2144 -211 c104 -65
221 -122 318 -154 54 -18 67 -25 61 -38 -47 -113 -92 -310 -101 -449 l-6 -104
-204 204 -203 203 0 214 0 213 23 -16 c12 -8 63 -41 112 -73z m1514 -269 c26
-101 108 -232 205 -327 34 -33 125 -98 200 -142 16 -9 15 -16 -10 -85 -32 -90
-99 -228 -150 -307 -86 -136 -243 -313 -276 -313 -22 0 -181 172 -240 260 -75
113 -142 240 -178 340 -17 44 -30 85 -30 90 0 5 33 28 73 51 92 54 221 182
274 274 35 58 64 129 79 193 2 6 12 12 22 12 15 0 22 -11 31 -46z m1494 -339
c60 -122 59 -256 -3 -381 -29 -60 -97 -136 -155 -174 -107 -71 -285 -80 -410
-22 l-69 33 299 299 c165 165 302 300 305 300 3 0 18 -25 33 -55z m-2700 -253
l298 -298 -39 -22 c-21 -12 -65 -28 -97 -37 -353 -91 -648 263 -498 598 14 31
29 57 32 57 3 0 140 -134 304 -298z m686 39 c17 -67 128 -290 190 -381 l50
-75 -212 -3 -211 -2 -198 197 c-109 109 -198 200 -198 203 0 3 35 6 78 8 129
6 333 47 425 87 53 23 62 19 76 -34z m1135 10 c112 -34 256 -61 325 -61 109 0
112 6 -105 -211 l-199 -199 -207 0 c-115 0 -208 2 -208 5 0 2 23 39 51 80 68
102 140 242 175 343 25 72 32 83 49 78 11 -3 65 -18 119 -35z m-806 -572 c53
-61 130 -119 159 -119 31 0 116 63 162 120 l32 40 121 0 120 0 -6 -27 c-16
-64 -66 -152 -114 -200 -207 -208 -556 -152 -687 109 -19 39 -35 81 -35 94 0
24 1 24 107 24 l106 0 35 -41z"/>
<path d="M922 4628 c-7 -7 -12 -19 -12 -27 0 -75 -65 -160 -154 -202 -34 -16
-69 -29 -78 -29 -21 0 -33 -36 -19 -54 6 -8 29 -16 49 -20 80 -12 145 -82 188
-200 34 -94 76 -104 88 -23 12 81 82 154 209 218 78 40 76 69 -6 89 -71 19
-130 76 -178 176 -41 84 -59 100 -87 72z m82 -199 c16 -23 49 -54 73 -69 l45
-29 -39 -24 c-45 -29 -91 -71 -119 -111 l-21 -29 -26 45 c-14 24 -46 63 -72
87 -26 24 -45 44 -43 45 2 1 24 17 49 35 25 17 59 52 74 77 24 38 31 43 39 30
6 -8 24 -34 40 -57z"/>
<path d="M486 4288 c-3 -7 -10 -30 -16 -51 -17 -54 -54 -93 -108 -113 -58 -21
-75 -40 -61 -65 5 -11 17 -19 25 -19 9 0 32 -7 51 -16 35 -17 87 -93 98 -146
11 -50 75 -45 75 6 0 49 66 119 142 150 63 27 59 64 -10 84 -47 14 -84 52
-120 123 -19 38 -34 55 -50 57 -12 2 -24 -3 -26 -10z m44 -128 c0 -5 18 -28
40 -50 l40 -40 -46 -42 c-49 -46 -64 -55 -64 -41 0 5 -16 28 -35 50 l-35 41
43 45 c43 45 57 54 57 37z"/>
</g>
</svg>
